<?xml version="1.0" encoding="utf-8"?>
<!-- Generator: Adobe Illustrator 16.0.0, SVG Export Plug-In . SVG Version: 6.00 Build 0)  -->
<!DOCTYPE svg PUBLIC "-//W3C//DTD SVG 1.1//EN" "http://www.w3.org/Graphics/SVG/1.1/DTD/svg11.dtd">
<svg version="1.1" id="Layer_1" xmlns="http://www.w3.org/2000/svg" xmlns:xlink="http://www.w3.org/1999/xlink" x="0px" y="0px"
	 width="198.718px" height="197.436px" viewBox="0 0 198.718 197.436" enable-background="new 0 0 198.718 197.436"
	 xml:space="preserve">
<path fill="#7CC142" d="M98.492,182.337c-48.479,0-87.918-38.543-87.918-85.921c0-47.375,39.439-85.913,87.918-85.913
	c48.478,0,87.918,38.538,87.918,85.913c0,28.129-14.114,54.511-37.748,70.554c-2.498,1.688-5.911,1.103-7.632-1.328
	c-1.733-2.441-1.117-5.771,1.363-7.47c20.693-14.052,33.046-37.138,33.046-61.756c0-41.463-34.514-75.197-76.947-75.197
	c-42.428,0-76.947,33.734-76.947,75.197c0,41.46,34.52,75.2,76.947,75.2c7.528,0,14.994-1.069,22.179-3.185
	c2.884-0.832,5.957,0.754,6.832,3.589c0.868,2.847-0.776,5.828-3.679,6.683C115.61,181.111,107.092,182.337,98.492,182.337z"/>
<g>
	<path fill="#7CC142" d="M87.72,133.711c-3.744,2.641-6.808,1.053-6.808-3.529V57.344c0-4.582,3.063-6.17,6.808-3.529l49.828,35.146
		c3.744,2.641,3.744,6.963,0,9.604L87.72,133.711z"/>
</g>
</svg>
